<svg width="12" height="12" viewBox="0 0 12 12" fill="none" xmlns="http://www.w3.org/2000/svg">
<path fill-rule="evenodd" clip-rule="evenodd" d="M10.775 5.00199C10.8998 4.63183 10.9431 4.23904 10.9019 3.85058C10.8606 3.46211 10.7358 3.08717 10.536 2.75149C9.9275 1.70649 8.705 1.16849 7.511 1.42149C7.24655 1.12869 6.92309 0.895195 6.56192 0.736369C6.20075 0.577543 5.81004 0.496984 5.4155 0.49999C4.195 0.49749 3.112 1.27299 2.7365 2.41899C2.35053 2.49625 1.9854 2.6547 1.66533 2.88383C1.34526 3.11296 1.07756 3.40753 0.880004 3.74799C0.581394 4.25512 0.453773 4.84483 0.515986 5.43005C0.578199 6.01527 0.826949 6.56497 1.2255 6.99799C1.10051 7.36819 1.05711 7.76105 1.09827 8.1496C1.13944 8.53816 1.26421 8.9132 1.464 9.24899C2.0725 10.294 3.295 10.8315 4.489 10.579C4.75337 10.8717 5.07675 11.1052 5.43784 11.2639C5.79894 11.4227 6.18957 11.5031 6.584 11.5C7.8055 11.503 8.889 10.727 9.2645 9.57999C9.65074 9.50274 10.0161 9.3442 10.3364 9.11489C10.6566 8.88558 10.9244 8.59075 11.122 8.24999C11.42 7.74289 11.5473 7.15344 11.4849 6.56855C11.4225 5.98367 11.1738 5.43431 10.7755 5.00149L10.775 5.00199ZM6.5845 10.781C6.0968 10.7822 5.6239 10.6135 5.247 10.304C5.264 10.295 5.2935 10.279 5.313 10.267L7.533 9.00199C7.58841 8.97107 7.63452 8.92587 7.66652 8.87108C7.69853 8.8163 7.71527 8.75394 7.715 8.69049V5.60249L8.6535 6.13699C8.6635 6.14199 8.67 6.15149 8.6715 6.16199V8.71949C8.67 9.85649 7.7365 10.7785 6.5845 10.781ZM2.096 8.88999C1.85132 8.47377 1.76303 7.98395 1.847 7.50849C1.863 7.51849 1.892 7.53599 1.9125 7.54749L4.1325 8.81249C4.245 8.87749 4.3845 8.87749 4.4975 8.81249L7.2075 7.26849V8.33749C7.20772 8.34298 7.20661 8.34844 7.20426 8.3534C7.20191 8.35836 7.19839 8.36268 7.194 8.36599L4.95 9.64399C3.9505 10.212 2.674 9.87399 2.0965 8.88899L2.096 8.88999ZM1.5115 4.10799C1.75715 3.68899 2.14199 3.36944 2.599 3.20499L2.598 3.28049V5.81049C2.5977 5.87401 2.61442 5.93646 2.64643 5.99133C2.67843 6.0462 2.72456 6.09149 2.78 6.12249L5.49 7.66599L4.552 8.20099C4.54736 8.20397 4.54206 8.20575 4.53657 8.20619C4.53107 8.20662 4.52556 8.2057 4.5205 8.20349L2.276 6.92399C1.2785 6.35399 0.936504 5.09499 1.511 4.10899L1.5115 4.10799ZM9.22 5.87799L6.51 4.33399L7.448 3.79999C7.4526 3.79693 7.45788 3.79506 7.46338 3.79454C7.46887 3.79401 7.47441 3.79486 7.4795 3.79699L9.724 5.07549C10.723 5.64549 11.0655 6.90649 10.4885 7.89199C10.2426 8.31073 9.85813 8.63033 9.4015 8.79549V6.18999C9.40182 6.12659 9.38516 6.06426 9.35324 6.00948C9.32132 5.95471 9.27532 5.90947 9.22 5.87849V5.87799ZM10.1535 4.49149C10.1317 4.47821 10.1097 4.46521 10.0875 4.45249L7.8675 3.18749C7.81206 3.1556 7.74922 3.13881 7.68525 3.13881C7.62129 3.13881 7.55845 3.1556 7.503 3.18749L4.793 4.73149V3.66249C4.79279 3.657 4.7939 3.65154 4.79625 3.64658C4.7986 3.64162 4.80212 3.6373 4.8065 3.63399L7.05 2.35649C8.05 1.78799 9.3275 2.12649 9.9035 3.11299C10.147 3.52949 10.236 4.01749 10.1535 4.49149ZM4.283 6.39649L3.3445 5.86249C3.33961 5.86009 3.33539 5.8565 3.33224 5.85204C3.3291 5.84759 3.32712 5.84241 3.3265 5.83699V3.27949C3.327 2.14099 4.263 1.21849 5.417 1.21949C5.905 1.21949 6.377 1.38849 6.7525 1.69649C6.7355 1.70549 6.7065 1.72149 6.687 1.73299L4.467 2.99799C4.41151 3.02884 4.3653 3.07402 4.3332 3.12881C4.3011 3.1836 4.28428 3.24599 4.2845 3.30949L4.283 6.39599V6.39649ZM4.793 5.31249L6 4.62499L7.207 5.31249V6.68749L6 7.37499L4.7925 6.68749V5.31249H4.793Z" fill="white"/>
</svg>
