<svg width="22" height="24" viewBox="0 0 22 24" fill="none" xmlns="http://www.w3.org/2000/svg">
<path d="M9.41597 21.0605C10.1586 21.0605 10.7607 21.6626 10.7607 22.4053C10.7607 23.148 10.1586 23.75 9.41597 23.75C8.6733 23.75 8.07125 23.148 8.07125 22.4053C8.07125 21.6626 8.6733 21.0605 9.41597 21.0605ZM16.8766 18.607L18.2055 19.0007L17.1506 22.5609C17.0585 22.872 16.7628 23.0775 16.4391 23.0554L16.1133 23.0331L16.1053 23.0396L12.7199 22.802L12.8141 21.4193L15.0886 21.5736L13.5996 19.4256L14.7386 18.6359L16.2296 20.7866L16.8766 18.607ZM2.41298 16.1458L3.7955 16.2437L3.63358 18.5179L5.77765 17.0269L6.56913 18.1647L4.42225 19.6572L6.6136 20.3029L6.2219 21.6324L2.64493 20.5785C2.33265 20.4865 2.1265 20.1895 2.14953 19.8648L2.41298 16.1458ZM11.3395 14.2093L13.8347 17.2218L12.7101 18.1533L11.2252 16.3605L10.7437 19.117L9.30527 18.8655L9.7872 16.1047L7.78803 17.2835L7.04683 16.0253L10.4066 14.046C10.7155 13.864 11.1108 13.9332 11.3395 14.2093ZM18.3206 12.1882L19.5671 11.51L21.3829 14.8475C21.542 15.1399 21.4764 15.5035 21.2253 15.7219L20.9683 15.9439L18.3469 18.2253L17.4157 17.1546L19.1781 15.6213L16.553 15.1484L16.8048 13.7519L19.4281 14.2246L18.3206 12.1882ZM3.621 8.69893L4.55995 9.76283L2.82178 11.2958L5.45185 11.755L5.20808 13.1529L2.5751 12.6934L3.70605 14.738L2.46438 15.4248L0.619455 12.0898C0.458375 11.7986 0.52131 11.4346 0.770808 11.2144L3.621 8.69893ZM12.5112 7.60133L14.9979 10.6058L13.873 11.5368L12.3884 9.7432L11.9069 12.5005L10.4685 12.2491L10.9488 9.499L8.95728 10.6664L8.2189 9.40662L11.278 7.61307L11.281 7.60143L11.2944 7.60318L11.5795 7.43695C11.8884 7.25595 12.2829 7.32555 12.5112 7.60133ZM15.7157 6.12375L16.2596 4.81313L19.7776 6.27305C20.0846 6.40047 20.2621 6.72405 20.2044 7.05145L20.1458 7.37712L19.5451 10.7944L18.1476 10.5483L18.5503 8.2607L16.2163 9.55065L15.5304 8.30845L17.8689 7.01743L15.7157 6.12375ZM9.01385 3.54105L9.07432 4.95875L6.7504 5.05807L8.50315 7.0611L7.43525 7.99552L5.67955 5.98947L5.2705 8.2797L3.87368 8.02985L4.5431 4.28722C4.6016 3.96012 4.87928 3.71745 5.21128 3.70327L5.54013 3.68858L5.5475 3.68322L9.01385 3.54105ZM13.7676 0.517615L16.2432 3.541L15.1133 4.4661L13.644 2.67135L13.1485 5.42502L11.7113 5.1664L12.2077 2.40653L10.2017 3.5794L9.46498 2.31862L12.8343 0.349775C13.1444 0.168608 13.5401 0.239779 13.7676 0.517615Z" fill="white"/>
</svg>
