<svg width="21" height="24" viewBox="0 0 21 24" fill="none" xmlns="http://www.w3.org/2000/svg">
<path d="M8.88521 20.8105C9.62789 20.8105 10.23 21.4126 10.23 22.1553C10.23 22.898 9.62789 23.5 8.88521 23.5C8.14254 23.5 7.54049 22.898 7.54049 22.1553C7.54049 21.4126 8.14254 20.8105 8.88521 20.8105ZM16.3458 18.357L17.6747 18.7507L16.6199 22.3109C16.5277 22.622 16.232 22.8275 15.9083 22.8054L15.5825 22.7831L15.5745 22.7896L12.1892 22.552L12.2834 21.1693L14.5578 21.3236L13.0688 19.1756L14.2078 18.3859L15.6988 20.5366L16.3458 18.357ZM1.88221 15.8958L3.26474 15.9937L3.10281 18.2679L5.24689 16.7769L6.03836 17.9147L3.89149 19.4072L6.08284 20.0529L5.69114 21.3824L2.11416 20.3285C1.80189 20.2365 1.59574 19.9395 1.61876 19.6148L1.88221 15.8958ZM10.8087 13.9593L13.304 16.9718L12.1794 17.9033L10.6944 16.1105L10.213 18.867L8.77451 18.6155L9.25644 15.8547L7.25726 17.0335L6.51606 15.7753L9.87586 13.796C10.1847 13.614 10.5801 13.6832 10.8087 13.9593ZM17.7898 11.9382L19.0363 11.26L20.8521 14.5975C21.0112 14.8899 20.9456 15.2535 20.6945 15.4719L20.4376 15.6939L17.8162 17.9753L16.885 16.9046L18.6473 15.3713L16.0223 14.8984L16.2741 13.5019L18.8973 13.9746L17.7898 11.9382ZM3.09024 8.44893L4.02919 9.51283L2.29101 11.0458L4.92109 11.505L4.67731 12.9029L2.04434 12.4434L3.17529 14.488L1.93361 15.1748L0.0886936 11.8398C-0.0723864 11.5486 -0.00945139 11.1846 0.240046 10.9644L3.09024 8.44893ZM11.9804 7.35133L14.4672 10.3558L13.3423 11.2868L11.8576 9.4932L11.3762 12.2505L9.93776 11.9991L10.418 9.249L8.42651 10.4164L7.68814 9.15662L10.7472 7.36307L10.7502 7.35143L10.7637 7.35318L11.0488 7.18695C11.3576 7.00595 11.7521 7.07555 11.9804 7.35133ZM15.1849 5.87375L15.7288 4.56313L19.2468 6.02305C19.5539 6.15047 19.7313 6.47405 19.6736 6.80145L19.6151 7.12712L19.0143 10.5444L17.6168 10.2983L18.0195 8.0107L15.6855 9.30065L14.9996 8.05845L17.3381 6.76743L15.1849 5.87375ZM8.48309 3.29105L8.54356 4.70875L6.21964 4.80807L7.97239 6.8111L6.90449 7.74552L5.14879 5.73947L4.73974 8.0297L3.34291 7.77985L4.01234 4.03722C4.07084 3.71012 4.34851 3.46745 4.68051 3.45327L5.00936 3.43858L5.01674 3.43322L8.48309 3.29105ZM13.2369 0.267615L15.7124 3.291L14.5826 4.2161L13.1133 2.42135L12.6177 5.17502L11.1806 4.9164L11.677 2.15653L9.67094 3.3294L8.93421 2.06862L12.3036 0.0997749C12.6136 -0.0813919 13.0094 -0.0102206 13.2369 0.267615Z" fill="black"/>
</svg>
